<?xml version="1.0" standalone="no"?>
<!DOCTYPE svg PUBLIC "-//W3C//DTD SVG 20010904//EN"
 "http://www.w3.org/TR/2001/REC-SVG-20010904/DTD/svg10.dtd">
<svg version="1.0" xmlns="http://www.w3.org/2000/svg"
 width="256.000000pt" height="256.000000pt" viewBox="0 0 256.000000 256.000000"
 preserveAspectRatio="xMidYMid meet">
<metadata>
Created by potrace 1.11, written by Peter Selinger 2001-2013
</metadata>
<g transform="translate(0.000000,256.000000) scale(0.100000,-0.100000)"
fill="#000000" stroke="none">
<path d="M410 2540 c0 -5 -9 -10 -21 -10 -28 0 -115 -38 -164 -71 -94 -63
-177 -180 -191 -271 -4 -21 -10 -38 -15 -38 -5 0 -9 -384 -9 -875 0 -504 4
-875 9 -875 5 0 12 -15 15 -34 27 -141 192 -305 334 -332 17 -3 32 -10 32 -15
0 -5 371 -9 875 -9 491 0 875 4 875 9 0 5 17 11 38 15 143 24 316 198 339 343
3 18 10 33 14 33 5 0 9 384 9 870 0 501 -4 870 -9 870 -5 0 -12 17 -16 38 -11
63 -73 167 -131 222 -54 51 -182 120 -223 120 -12 0 -21 5 -21 10 0 7 -297 10
-870 10 -573 0 -870 -3 -870 -10z"/>
</g>
</svg>
