<?xml version="1.0" standalone="no"?>
<!DOCTYPE svg PUBLIC "-//W3C//DTD SVG 20010904//EN"
 "http://www.w3.org/TR/2001/REC-SVG-20010904/DTD/svg10.dtd">
<svg version="1.0" xmlns="http://www.w3.org/2000/svg"
 width="192.000000pt" height="192.000000pt" viewBox="0 0 192.000000 192.000000"
 preserveAspectRatio="xMidYMid meet">
<metadata>
Created by potrace 1.11, written by Peter Selinger 2001-2013
</metadata>
<g transform="translate(0.000000,192.000000) scale(0.100000,-0.100000)"
fill="#000000" stroke="none">
<path d="M790 1865 c-327 -58 -599 -298 -701 -617 -29 -92 -32 -120 -33 -278
-1 -112 4 -160 18 -210 10 -36 18 -71 19 -77 0 -7 4 -13 9 -13 4 0 8 -7 8 -15
0 -22 55 -129 100 -195 44 -64 126 -150 190 -200 25 -19 47 -38 48 -42 2 -5 8
-6 13 -2 5 3 9 0 9 -5 0 -6 6 -11 13 -11 7 0 19 -6 26 -12 6 -7 16 -14 22 -14
5 -1 14 -2 19 -3 6 0 10 -9 11 -18 0 -11 3 -13 6 -6 3 9 11 9 29 -3 13 -9 24
-13 24 -9 0 4 11 0 25 -9 14 -9 25 -14 25 -12 0 3 18 -1 41 -9 23 -8 45 -12
50 -9 5 3 9 -3 10 -13 0 -10 3 -13 6 -5 2 6 14 12 24 12 11 0 18 -4 15 -8 -3
-5 9 -9 27 -10 18 0 39 -1 47 -3 8 -1 22 0 30 2 9 2 14 -2 12 -11 -2 -12 1
-11 11 2 8 10 16 16 18 13 9 -8 59 -13 54 -5 -3 5 10 8 30 6 20 -1 35 2 35 8
0 6 5 4 10 -4 7 -12 10 -12 10 -1 0 7 6 11 15 7 8 -3 15 -2 15 3 0 4 6 8 13 8
22 1 80 14 90 20 6 3 7 1 3 -5 -4 -7 -3 -12 3 -12 5 0 11 5 13 12 2 6 13 12
24 13 10 1 30 8 44 16 14 7 30 14 35 14 6 0 11 5 13 10 5 16 31 27 44 19 6 -4
8 -3 5 3 -10 16 30 46 50 39 9 -4 14 -4 11 0 -10 9 29 47 41 40 7 -4 9 -1 5 8
-3 9 2 17 15 21 12 3 26 15 31 26 6 10 21 19 33 19 14 0 18 3 10 8 -9 6 2 22
34 57 26 27 41 45 33 41 -8 -4 -5 1 7 12 12 11 19 22 16 26 -4 3 1 6 11 6 9 0
14 5 11 10 -4 6 1 23 11 38 10 15 19 34 21 42 1 8 7 16 13 18 5 2 8 8 4 13 -3
5 -1 9 3 9 5 0 9 10 10 22 1 11 7 24 13 28 7 4 11 10 11 14 -3 24 0 46 7 42 4
-3 8 7 8 22 -1 18 4 26 13 24 11 -2 12 0 3 11 -6 7 -9 24 -6 38 4 13 6 34 6
46 0 15 4 20 12 16 6 -4 5 1 -3 10 -7 9 -10 17 -5 17 10 0 10 92 0 109 -7 11
-1 15 19 12 6 -1 3 4 -5 11 -8 7 -15 27 -15 43 0 17 -3 37 -7 46 -4 9 -9 32
-11 50 -2 19 -6 39 -9 44 -10 17 -32 90 -30 98 1 4 -2 7 -7 7 -5 0 -11 8 -14
18 -2 9 -8 26 -13 36 -5 15 -4 17 6 11 9 -5 11 -4 6 4 -4 6 -11 9 -15 7 -4 -3
-14 7 -22 22 -40 78 -132 184 -224 257 -27 22 -52 42 -55 45 -9 9 -190 100
-190 95 0 -2 -15 2 -34 10 -33 14 -54 19 -151 35 -70 11 -208 9 -285 -5z"/>
<path d="M1329 133 c-13 -16 -12 -17 4 -4 16 13 21 21 13 21 -2 0 -10 -8 -17
-17z"/>
<path d="M1270 110 c0 -5 5 -10 11 -10 5 0 7 5 4 10 -3 6 -8 10 -11 10 -2 0
-4 -4 -4 -10z"/>
</g>
</svg>
